<svg width="61" height="49" viewBox="0 0 61 49" fill="none" xmlns="http://www.w3.org/2000/svg">
<path fill-rule="evenodd" clip-rule="evenodd" d="M49.2665 11.9631C37.5858 9.13729 23.4148 9.13729 11.7341 11.9631C10.2871 12.3132 9.12774 13.357 8.57394 14.8357C7.10025 18.7706 5.30644 25.7021 4.6961 35.2673C4.41007 39.7501 7.50902 42.3709 12.0599 44.6633C12.2676 44.768 12.3473 44.7472 12.4533 44.7057C12.6529 44.6274 12.9953 44.3979 13.4504 43.8575C14.3695 42.7658 15.2178 41.0605 15.9808 39.3409C17.1544 36.6958 19.7368 35.0681 22.6053 35.0681H38.3953C41.2638 35.0681 43.8462 36.6958 45.0198 39.3409C45.7827 41.0605 46.631 42.7658 47.5502 43.8575C48.0053 44.3979 48.3477 44.6274 48.5472 44.7057C48.6533 44.7472 48.7329 44.768 48.9406 44.6633C53.5282 42.3524 56.5879 39.7094 56.3045 35.2673C55.6941 25.702 53.9003 18.7706 52.4266 14.8357C51.8728 13.357 50.7135 12.3132 49.2665 11.9631ZM10.7494 7.89305C23.0772 4.91065 37.9233 4.91065 50.2511 7.89305C53.1215 8.58746 55.3345 10.6604 56.3481 13.367C57.9792 17.7222 59.8493 25.0626 60.4835 35.0006C60.9445 42.226 55.5714 46.012 50.8245 48.4032C49.5458 49.0473 48.2249 49.0771 47.0188 48.6042C45.9061 48.168 45.0248 47.3596 44.347 46.5546C43.0005 44.9555 41.9469 42.7404 41.1921 41.0391C40.7073 39.9464 39.6509 39.2556 38.3953 39.2556H22.6053C21.3497 39.2556 20.2933 39.9464 19.8085 41.0391C19.0537 42.7404 18.0001 44.9555 16.6536 46.5546C15.9758 47.3596 15.0944 48.168 13.9818 48.6042C12.7757 49.0771 11.4548 49.0473 10.176 48.4032C5.48676 46.041 0.0526759 42.2792 0.517103 35.0006C1.15123 25.0626 3.02137 17.7222 4.65244 13.367C5.6661 10.6604 7.87906 8.58746 10.7494 7.89305Z" fill="#FF378D"/>
<path fill-rule="evenodd" clip-rule="evenodd" d="M18.4671 1.64983C18.7525 2.77039 18.0755 3.91018 16.955 4.19563L11.4753 5.59146C10.3548 5.8769 9.215 5.19991 8.92955 4.07934C8.64411 2.95878 9.32111 1.81899 10.4417 1.53355L15.9213 0.137714C17.0419 -0.147729 18.1816 0.529269 18.4671 1.64983ZM42.4273 1.65886C42.7077 0.537041 43.8445 -0.145021 44.9663 0.135434L50.5497 1.53127C51.6715 1.81172 52.3535 2.94849 52.0731 4.07031C51.7926 5.19213 50.6559 5.87419 49.534 5.59374L43.9507 4.19791C42.8289 3.91745 42.1468 2.78068 42.4273 1.65886Z" fill="#FF378D"/>
<path fill-rule="evenodd" clip-rule="evenodd" d="M23.6055 17.4362C24.4232 18.2538 24.4232 19.5795 23.6055 20.3972L20.8985 23.1042L23.6055 25.8112C24.4232 26.6288 24.4232 27.9545 23.6055 28.7722C22.7878 29.5898 21.4622 29.5898 20.6445 28.7722L17.9375 26.0652L15.2305 28.7722C14.4128 29.5898 13.0872 29.5898 12.2695 28.7722C11.4518 27.9545 11.4518 26.6288 12.2695 25.8112L14.9765 23.1042L12.2695 20.3972C11.4518 19.5795 11.4518 18.2538 12.2695 17.4362C13.0872 16.6185 14.4128 16.6185 15.2305 17.4362L17.9375 20.1432L20.6445 17.4362C21.4622 16.6185 22.7878 16.6185 23.6055 17.4362Z" fill="#FF378D"/>
<path fill-rule="evenodd" clip-rule="evenodd" d="M38.8418 18.9167C38.8418 17.3749 40.0917 16.125 41.6335 16.125H41.6585C43.2003 16.125 44.4502 17.3749 44.4502 18.9167C44.4502 20.4585 43.2003 21.7083 41.6585 21.7083H41.6335C40.0917 21.7083 38.8418 20.4585 38.8418 18.9167Z" fill="#FF378D"/>
<path fill-rule="evenodd" clip-rule="evenodd" d="M44.4258 27.2917C44.4258 25.7499 45.6757 24.5 47.2174 24.5H47.2425C48.7843 24.5 50.0342 25.7499 50.0342 27.2917C50.0342 28.8335 48.7843 30.0833 47.2425 30.0833H47.2174C45.6757 30.0833 44.4258 28.8335 44.4258 27.2917Z" fill="#FF378D"/>
</svg>
