<svg width="52" height="52" viewBox="0 0 52 52" fill="none" xmlns="http://www.w3.org/2000/svg">
<path fill-rule="evenodd" clip-rule="evenodd" d="M0.8125 10.5C0.8125 9.42995 1.67995 8.5625 2.75 8.5625L28.5833 8.5625C29.6534 8.5625 30.5208 9.42995 30.5208 10.5C30.5208 11.5701 29.6534 12.4375 28.5833 12.4375L2.75 12.4375C1.67995 12.4375 0.8125 11.5701 0.8125 10.5Z" fill="white"/>
<path fill-rule="evenodd" clip-rule="evenodd" d="M0.8125 26C0.8125 24.9299 1.67995 24.0625 2.75 24.0625L28.5833 24.0625C29.6534 24.0625 30.5208 24.93 30.5208 26C30.5208 27.0701 29.6534 27.9375 28.5833 27.9375L2.75 27.9375C1.67995 27.9375 0.8125 27.0701 0.8125 26Z" fill="white"/>
<path fill-rule="evenodd" clip-rule="evenodd" d="M0.8125 41.5C0.8125 40.4299 1.67995 39.5625 2.75 39.5625L28.5833 39.5625C29.6534 39.5625 30.5208 40.43 30.5208 41.5C30.5208 42.5701 29.6534 43.4375 28.5833 43.4375L2.75 43.4375C1.67995 43.4375 0.8125 42.5701 0.8125 41.5Z" fill="white"/>
<path fill-rule="evenodd" clip-rule="evenodd" d="M46.377 35.7098C46.3119 35.6969 46.1883 35.6875 45.3752 35.6875H41.5002C40.4302 35.6875 39.5627 34.82 39.5627 33.75C39.5627 32.6799 40.4302 31.8125 41.5002 31.8125H45.3752C45.4225 31.8125 45.4696 31.8124 45.5166 31.8124C46.0922 31.8117 46.6394 31.8111 47.133 31.9093C49.1313 32.3068 50.6934 33.8689 51.0909 35.8672C51.1891 36.3608 51.1885 36.908 51.1878 37.4836C51.1878 37.5306 51.1877 37.5777 51.1877 37.625C51.1877 37.6723 51.1878 37.7194 51.1878 37.7664C51.1885 38.342 51.1891 38.8892 51.0909 39.3828C50.6934 41.3811 49.1313 42.9432 47.133 43.3407C46.6394 43.4389 46.0922 43.4383 45.5166 43.4376C45.4696 43.4376 45.4225 43.4375 45.3752 43.4375C44.5621 43.4375 44.4385 43.4469 44.3734 43.4598C43.9123 43.5516 43.5518 43.9121 43.46 44.3732C43.4471 44.4383 43.4377 44.5619 43.4377 45.375V47.3125H49.2502C50.3203 47.3125 51.1877 48.1799 51.1877 49.25C51.1877 50.32 50.3203 51.1875 49.2502 51.1875H43.0502C43.0287 51.1875 43.0066 51.1875 42.984 51.1875C42.6806 51.1878 42.2862 51.1882 41.9417 51.1418C41.5158 51.0846 40.8907 50.9265 40.3572 50.393C39.8237 49.8595 39.6656 49.2344 39.6084 48.8086C39.562 48.4641 39.5624 48.0696 39.5627 47.7662C39.5627 47.7436 39.5627 47.7215 39.5627 47.7V45.375C39.5627 45.3277 39.5627 45.2806 39.5626 45.2336C39.562 44.658 39.5613 44.1108 39.6595 43.6172C40.057 41.6189 41.6191 40.0568 43.6174 39.6593C44.111 39.5611 44.6582 39.5617 45.2338 39.5624C45.2808 39.5624 45.3279 39.5625 45.3752 39.5625C46.1883 39.5625 46.3119 39.5531 46.377 39.5402C46.8382 39.4484 47.1986 39.0879 47.2904 38.6268C47.3033 38.5617 47.3127 38.4381 47.3127 37.625C47.3127 36.8119 47.3033 36.6883 47.2904 36.6232L49.1906 36.2452L47.2904 36.6232C47.1986 36.1621 46.8382 35.8016 46.377 35.7098Z" fill="white"/>
<path fill-rule="evenodd" clip-rule="evenodd" d="M39.5625 2.75C39.5625 1.67995 40.4299 0.8125 41.5 0.8125H44.6C46.0981 0.8125 47.3125 2.02693 47.3125 3.525V16.3125H49.25C50.3201 16.3125 51.1875 17.1799 51.1875 18.25C51.1875 19.3201 50.3201 20.1875 49.25 20.1875H41.5C40.4299 20.1875 39.5625 19.3201 39.5625 18.25C39.5625 17.1799 40.4299 16.3125 41.5 16.3125H43.4375V4.6875H41.5C40.4299 4.6875 39.5625 3.82005 39.5625 2.75Z" fill="white"/>
</svg>
