<svg width="46" height="47" viewBox="0 0 46 47" fill="none" xmlns="http://www.w3.org/2000/svg">
<g filter="url(#filter0_d_14_271)">
<path fill-rule="evenodd" clip-rule="evenodd" d="M14.9435 3.17886C13.9018 3.17886 12.9078 3.61077 12.2038 4.36936L10.5996 6.09808H34.5783L32.9741 4.36936C32.2701 3.61077 31.2762 3.17886 30.2344 3.17886H14.9435ZM37.4258 9.27398C37.3931 9.27594 37.3601 9.27693 37.3269 9.27693H7.75034C7.40449 9.8446 7.21811 10.4984 7.21811 11.1701V29.4213C7.21811 32.4174 9.67688 34.8461 12.7099 34.8461H32.468C35.501 34.8461 37.9598 32.4174 37.9598 29.4213V11.1701C37.9598 10.4972 37.7728 9.84233 37.4258 9.27398ZM5.69438 6.68352C4.60299 7.92731 4 9.51982 4 11.1701V29.4213C4 34.173 7.89957 38.025 12.7099 38.025H32.468C37.2783 38.025 41.1779 34.173 41.1779 29.4213V11.1701C41.1779 9.45621 40.5275 7.80463 39.3552 6.54126L35.3463 2.22133C34.0328 0.805894 32.1782 0 30.2344 0H14.9435C12.9997 0 11.1451 0.805894 9.83159 2.22133L5.82276 6.54126C5.80769 6.5575 5.79271 6.5738 5.77781 6.59016C5.7488 6.62019 5.72096 6.65133 5.69438 6.68352ZM22.589 14.1268C23.4776 14.1268 24.198 14.8384 24.198 15.7162V25.1868L27.4708 22.1008C28.1137 21.4947 29.1322 21.5181 29.7458 22.1531C30.3594 22.7881 30.3357 23.7942 29.6929 24.4003L23.7 30.051C23.0782 30.6373 22.0997 30.6373 21.4779 30.051L15.485 24.4003C14.8422 23.7942 14.8185 22.7881 15.4321 22.1531C16.0457 21.5181 17.0643 21.4947 17.7071 22.1008L20.9799 25.1868V15.7162C20.9799 14.8384 21.7003 14.1268 22.589 14.1268Z" fill="#007AFF"/>
</g>
<defs>
<filter id="filter0_d_14_271" x="0" y="0" width="45.1779" height="46.025" filterUnits="userSpaceOnUse" color-interpolation-filters="sRGB">
<feFlood flood-opacity="0" result="BackgroundImageFix"/>
<feColorMatrix in="SourceAlpha" type="matrix" values="0 0 0 0 0 0 0 0 0 0 0 0 0 0 0 0 0 0 127 0" result="hardAlpha"/>
<feOffset dy="4"/>
<feGaussianBlur stdDeviation="2"/>
<feComposite in2="hardAlpha" operator="out"/>
<feColorMatrix type="matrix" values="0 0 0 0 0 0 0 0 0 0 0 0 0 0 0 0 0 0 0.25 0"/>
<feBlend mode="normal" in2="BackgroundImageFix" result="effect1_dropShadow_14_271"/>
<feBlend mode="normal" in="SourceGraphic" in2="effect1_dropShadow_14_271" result="shape"/>
</filter>
</defs>
</svg>
