<svg width="28" height="28" viewBox="0 0 28 28" fill="none" xmlns="http://www.w3.org/2000/svg">
<path d="M19 16.5C19 17.5355 19.8395 18.375 20.875 18.375C21.9105 18.375 22.75 17.5355 22.75 16.5C22.75 15.4645 21.9105 14.625 20.875 14.625C19.8395 14.625 19 15.4645 19 16.5Z" stroke="white" stroke-width="1.875"/>
<path d="M22.625 9C22.707 8.59611 22.75 8.17808 22.75 7.75C22.75 4.29822 19.9518 1.5 16.5 1.5C13.0482 1.5 10.25 4.29822 10.25 7.75C10.25 8.17808 10.293 8.59611 10.375 9" stroke="white" stroke-width="1.875"/>
<path d="M7.75 8.99155H19C22.5355 8.99155 24.3033 8.99155 25.4017 10.0904C26.5 11.1893 26.5 12.9579 26.5 16.4952V18.9964C26.5 22.5336 26.5 24.3022 25.4017 25.4011C24.3033 26.5 22.5355 26.5 19 26.5H11.5C6.78595 26.5 4.42893 26.5 2.96447 25.0348C1.5 23.5697 1.5 21.2115 1.5 16.4952V13.994C1.5 9.27764 1.5 6.91948 2.96447 5.45431C4.14332 4.27488 5.90054 4.04486 9 4H11.5" stroke="white" stroke-width="1.875" stroke-linecap="round"/>
</svg>
